<?xml version="1.0" encoding="UTF-8" standalone="no"?>
<!-- Created with Inkscape (http://www.inkscape.org/) -->

<svg
   xmlns:dc="http://purl.org/dc/elements/1.1/"
   xmlns:cc="http://creativecommons.org/ns#"
   xmlns:rdf="http://www.w3.org/1999/02/22-rdf-syntax-ns#"
   xmlns:svg="http://www.w3.org/2000/svg"
   xmlns="http://www.w3.org/2000/svg"
   xmlns:sodipodi="http://sodipodi.sourceforge.net/DTD/sodipodi-0.dtd"
   xmlns:inkscape="http://www.inkscape.org/namespaces/inkscape"
   width="251.71867"
   height="232.93494"
   id="svg2"
   version="1.1"
   inkscape:version="0.91 r13725"
   sodipodi:docname="logo-text.svg">
  <defs
     id="defs4" />
  <sodipodi:namedview
     id="base"
     pagecolor="#ffffff"
     bordercolor="#666666"
     borderopacity="1.0"
     inkscape:pageopacity="0.0"
     inkscape:pageshadow="2"
     inkscape:zoom="0.9899495"
     inkscape:cx="120.44242"
     inkscape:cy="120.90509"
     inkscape:document-units="px"
     inkscape:current-layer="g2998"
     showgrid="false"
     fit-margin-top="0"
     fit-margin-left="0"
     fit-margin-right="0"
     fit-margin-bottom="0"
     inkscape:window-width="1278"
     inkscape:window-height="693"
     inkscape:window-x="0"
     inkscape:window-y="64"
     inkscape:window-maximized="1" />
  <metadata
     id="metadata7">
    <rdf:RDF>
      <cc:Work
         rdf:about="">
        <dc:format>image/svg+xml</dc:format>
        <dc:type
           rdf:resource="http://purl.org/dc/dcmitype/StillImage" />
        <dc:title></dc:title>
      </cc:Work>
    </rdf:RDF>
  </metadata>
  <g
     inkscape:label="Layer 1"
     inkscape:groupmode="layer"
     id="layer1"
     transform="translate(-219.92857,-724.23125)">
    <g
       id="g2998">
      <path
         style="fill:#53fe00;fill-opacity:1"
         d="m 230.83183,956.74433 c -5.54488,-1.25926 -9.3482,-5.03942 -10.48985,-10.42596 -1.14012,-5.37943 0.10725,-10.55044 3.37973,-14.01059 1.67358,-1.76957 3.10187,-2.6681 5.6861,-3.57712 1.59234,-0.56011 2.44279,-0.65401 6.01591,-0.66426 3.50205,-0.01 4.52518,0.0923 6.45735,0.64554 3.55681,1.01855 3.5874,1.05192 3.5874,3.91409 0,1.32874 -0.10973,2.4837 -0.24383,2.56659 -0.13412,0.0829 -1.16702,-0.23718 -2.29535,-0.71125 -4.14541,-1.74171 -8.83381,-1.79858 -11.66149,-0.14145 -2.61864,1.53463 -4.08831,5.04539 -3.79214,9.05867 0.29868,4.04725 1.5775,6.25403 4.43825,7.65883 1.45599,0.71497 1.95985,0.80746 4.39852,0.80746 3.66278,0 3.74853,-0.077 3.64196,-3.27255 l -0.0823,-2.46731 -2.00895,-0.14349 -2.00895,-0.1435 0,-2.29594 0,-2.29595 5.30938,0 5.30937,0 0.077,6.68052 0.077,6.68051 -1.36852,0.59164 c -3.93597,1.70158 -10.59728,2.41521 -14.42671,1.54552 z m 29.05399,0.14544 c -3.57247,-0.76179 -6.31201,-2.84771 -7.73019,-5.88586 -0.7278,-1.55915 -0.80364,-2.02044 -0.80218,-4.87889 0.001,-2.87504 0.076,-3.31813 0.83377,-4.96253 1.68415,-3.65429 4.9736,-5.70263 9.63986,-6.00272 5.49144,-0.35314 9.17749,1.73947 11.22642,6.37337 0.48209,1.09031 0.64041,2.02088 0.65915,3.8744 l 0.0246,2.43945 -7.79161,0.0763 c -6.16173,0.0604 -7.82223,0.15609 -7.93798,0.45775 -0.22742,0.59265 0.79011,2.59937 1.66834,3.29018 1.92321,1.5128 5.57329,1.53805 9.77889,0.0676 1.40821,-0.49235 2.78641,-0.97106 3.06263,-1.0638 0.45214,-0.1518 0.50224,0.0745 0.50224,2.26948 0,2.39153 -0.0151,2.44416 -0.78923,2.75527 -2.72505,1.09512 -9.65628,1.76324 -12.34476,1.18994 z m 7.26427,-13.22625 c 0.32133,-0.51992 -0.72835,-2.80681 -1.5602,-3.39915 -2.39108,-1.70259 -6.10107,-0.68303 -7.20404,1.97977 -0.68055,1.64299 -0.46915,1.72843 4.27626,1.72843 2.7595,0 4.36531,-0.11057 4.48798,-0.30905 z m 28.08878,13.10575 c -4.7233,-1.47882 -6.32663,-7.75699 -2.86403,-11.21467 1.70902,-1.70659 3.45182,-2.1967 8.4347,-2.372 3.14484,-0.11069 4.14882,-0.23855 4.26583,-0.54349 0.25998,-0.67752 -0.46514,-1.97353 -1.43121,-2.558 -1.34941,-0.81638 -6.47981,-0.75361 -9.09987,0.11129 -1.026,0.33871 -1.96231,0.61749 -2.0807,0.61952 -0.11841,0.002 -0.21524,-1.02493 -0.21524,-2.28214 0,-1.89791 0.0867,-2.33224 0.51082,-2.55923 0.91934,-0.49201 6.44524,-0.97385 9.384,-0.81824 4.83436,0.25597 7.20988,1.47664 8.67332,4.45677 l 0.80389,1.63704 0,7.60531 0,7.60532 -3.15692,0 -3.15693,0 -0.089,-1.07623 c -0.049,-0.59192 -0.22705,-1.07622 -0.3957,-1.07622 -0.16865,0 -0.79889,0.44474 -1.40053,0.98828 -1.87342,1.69252 -5.43816,2.33585 -8.18236,1.47666 z m 7.35217,-4.54564 c 1.47034,-0.74145 2.64509,-2.65569 2.50976,-4.08966 -0.0801,-0.84936 -0.10641,-0.86219 -1.94672,-0.95138 -2.85251,-0.13824 -4.27673,0.1616 -5.21253,1.09739 -1.80823,1.80824 -0.30789,4.56182 2.49704,4.58285 0.47956,0.004 1.44815,-0.28404 2.15245,-0.6392 z m 40.50568,4.6612 c -5.22832,-1.10327 -8.3734,-5.14469 -8.3734,-10.75981 0,-4.8931 2.36631,-8.58613 6.55463,-10.22968 1.35159,-0.53037 2.20357,-0.63907 5.0686,-0.64667 3.86066,-0.0107 5.70607,0.50078 7.79502,2.15859 4.19369,3.32813 5.12374,10.70089 1.93786,15.36202 -1.91238,2.79795 -4.73591,4.13996 -9.01539,4.285 -1.49955,0.0508 -3.28484,-0.0254 -3.96732,-0.16945 z m 5.40675,-5.12023 c 0.57175,-0.30348 1.30727,-1.07162 1.71749,-1.79371 0.61861,-1.0889 0.71748,-1.61884 0.71748,-3.84587 0,-2.22702 -0.0989,-2.75696 -0.71748,-3.84586 -0.97186,-1.71068 -2.28528,-2.40485 -4.20757,-2.22377 -3.04415,0.28676 -4.25462,2.01361 -4.25462,6.06963 0,2.83652 0.59848,4.505 1.92853,5.37648 1.38484,0.90739 3.3954,1.01722 4.81617,0.2631 z m 55.21877,5.00467 c -4.7233,-1.47882 -6.32661,-7.75699 -2.86402,-11.21467 1.70902,-1.70659 3.45181,-2.1967 8.4347,-2.372 3.14485,-0.11069 4.14883,-0.23855 4.26584,-0.54349 0.25999,-0.67752 -0.46516,-1.97353 -1.43121,-2.558 -1.34941,-0.81638 -6.47981,-0.75361 -9.09985,0.11129 -1.02602,0.33871 -1.96232,0.61749 -2.08071,0.61952 -0.11842,0.002 -0.21525,-1.02493 -0.21525,-2.28214 0,-1.89791 0.0867,-2.33224 0.51082,-2.55923 0.91933,-0.49201 6.44524,-0.97385 9.38399,-0.81824 4.83437,0.25597 7.20987,1.47664 8.67333,4.45677 l 0.80389,1.63704 0,7.60531 0,7.60532 -3.15691,0 -3.15693,0 -0.0891,-1.07623 c -0.049,-0.59192 -0.22707,-1.07622 -0.39571,-1.07622 -0.16863,0 -0.7989,0.44474 -1.40052,0.98828 -1.87343,1.69252 -5.43818,2.33585 -8.18237,1.47666 z m 7.35219,-4.54564 c 1.47035,-0.74145 2.64508,-2.65569 2.50975,-4.08966 -0.0801,-0.84936 -0.10641,-0.86219 -1.94669,-0.95138 -2.85254,-0.13824 -4.27675,0.1616 -5.21255,1.09739 -1.80823,1.80824 -0.30792,4.56182 2.49704,4.58285 0.47955,0.004 1.44814,-0.28404 2.15245,-0.6392 z m 26.07935,4.50478 c -0.72465,-0.22323 -1.91912,-0.93541 -2.65443,-1.58263 -1.40274,-1.23476 -1.52235,-1.20279 -1.68379,0.45002 l -0.084,0.86098 -3.15692,0 -3.15693,0 0,-14.49315 0,-14.49315 3.15693,0 3.15692,0 0.0741,5.02237 c 0.0408,2.76231 0.13772,5.19468 0.21553,5.40528 0.098,0.26521 0.55117,0.0222 1.47457,-0.79056 2.1874,-1.92543 5.07117,-2.48519 8.12747,-1.57756 1.13437,0.33686 1.91063,0.83732 3.00485,1.93719 2.22225,2.23377 3.31864,5.09407 3.31864,8.65782 0,3.56376 -1.09639,6.42405 -3.31864,8.65783 -2.22299,2.2345 -5.2673,2.93343 -8.47416,1.94556 z m 2.82597,-5.19846 c 1.3992,-1.04467 1.9355,-2.54229 1.9355,-5.40493 0,-4.22064 -1.33317,-6.02685 -4.44839,-6.02685 -2.78846,0 -4.239,1.65625 -4.52037,5.16135 -0.25639,3.19404 0.77488,5.80308 2.62516,6.64153 1.17595,0.53288 3.45418,0.34109 4.4081,-0.3711 z m 18.43761,5.51166 c -0.23677,-0.0565 -1.39909,-0.25843 -2.58294,-0.44887 -1.18385,-0.19044 -2.31388,-0.47617 -2.51119,-0.63499 -0.39057,-0.31437 -0.52488,-4.81317 -0.1435,-4.80668 0.11842,0.002 1.23944,0.33073 2.49125,0.73046 2.77588,0.88643 6.23756,1.20618 7.72912,0.71393 1.28674,-0.42467 2.03869,-1.45068 1.78984,-2.44216 -0.24306,-0.96846 -0.82218,-1.22078 -3.96103,-1.72588 -5.22714,-0.84113 -6.96727,-1.7126 -8.01195,-4.01248 -0.29374,-0.64661 -0.52965,-1.83066 -0.53315,-2.67578 -0.0224,-5.40279 4.55378,-7.49012 13.91286,-6.34599 3.63585,0.44447 3.5874,0.40212 3.5874,3.13664 0,1.63932 -0.10141,2.2848 -0.35873,2.28214 -0.19732,-0.002 -1.19821,-0.26684 -2.22421,-0.58843 -4.17605,-1.309 -8.06409,-0.96898 -8.49376,0.74283 -0.32293,1.28669 0.50437,1.78119 4.05036,2.42099 4.15431,0.74956 5.72948,1.31646 6.89428,2.48124 2.21623,2.21625 2.10701,6.52768 -0.22645,8.93869 -1.47055,1.51942 -3.54187,2.13639 -7.5338,2.24407 -1.89415,0.0511 -3.63763,0.0467 -3.8744,-0.01 z M 278.89497,956.2513 c -0.0776,-0.20268 -0.1076,-6.76128 -0.0665,-14.57467 l 0.0747,-14.20615 3.15693,0 3.15692,0 0,14.49315 0,14.49315 -3.09044,0.0816 c -2.31198,0.061 -3.12599,-0.0119 -3.23161,-0.287 z m 43.8723,0.0781 c -1.5636,-0.37945 -2.79792,-1.29041 -3.54156,-2.61377 -0.68397,-1.21714 -0.72419,-1.55171 -0.86099,-7.16016 l -0.14349,-5.88336 -1.57846,-0.1435 -1.57847,-0.14349 0,-2.29595 0,-2.29594 1.57847,-0.1435 1.57846,-0.1435 0.14349,-2.86992 0.1435,-2.86994 3.15692,0 3.15693,0 0.14349,2.86994 0.14349,2.86992 3.30043,0.1435 3.30042,0.1435 0,2.29594 0,2.29595 -3.30042,0.14349 -3.30043,0.1435 -0.0785,4.767 c -0.10034,6.09407 -0.11164,6.07416 3.56786,6.28223 l 2.5375,0.1435 0,2.29595 0,2.29594 -3.73091,0.0464 c -2.05201,0.0254 -4.13898,-0.0527 -4.63774,-0.1737 z m 53.703,-0.0841 c -0.0765,-0.19942 -0.10534,-6.49705 -0.0642,-13.99474 l 0.0748,-13.63217 3.44392,0 3.44392,0 0.14349,11.19272 0.1435,11.19273 6.17035,0.14351 6.17036,0.14349 0,2.58294 0,2.58294 -9.69357,0.0756 c -7.60056,0.0592 -9.72356,-0.002 -9.83253,-0.28698 z"
         id="path3000"
         inkscape:connector-curvature="0"
         sodipodi:nodetypes="csssccscsssssscccccccccscccsccssccsssscsscccsssccsccsccscssccccccssccscsscscsscssccssscsssscsccsccscssccccccscccscsscsccccccccccccscsssccsssssscssccscsccsscscsssccccscccccccccsscccccccccccccccccccsscccccccscccccccccccc" />
      <g
         transform="matrix(1.328125,0,0,1.328125,-31.969063,-384.07565)"
         id="layer1-3"
         inkscape:label="Layer 1">
        <path
           inkscape:connector-curvature="0"
           id="path3000-5"
           d="m 284.3563,834.4899 c -8.7192,0 -13.68088,0.82084 -21.42772,3.54224 -21.06868,7.40129 -36.31392,24.87017 -41.4572,47.51693 -1.24892,5.49921 -1.24892,20.24125 0,25.74045 3.6472,16.05916 11.997,29.09457 24.74632,38.61065 9.13596,6.81912 18.5564,10.48048 31.9394,12.43164 3.18472,0.46432 14.63444,-0.1588 18.86716,-1.02892 12.57104,-2.58444 23.6914,-8.5736 32.61324,-17.54264 19.32956,-19.43193 24.34836,-48.31805 12.65108,-72.78506 -7.46204,-15.60824 -20.93056,-27.71749 -36.90888,-33.17917 -7.22972,-2.47128 -12.55704,-3.30612 -21.0234,-3.30612 z m -1.14552,11.31837 c 5.01572,-0.0636 10.22444,0.44796 14.28516,1.51812 29.85632,7.86844 46.7206,39.05076 36.82464,68.09577 -5.72304,16.79728 -19.63416,29.66061 -36.74044,34.00573 -5.85428,1.487 -14.79008,2.10404 -19.97896,1.36628 -21.49512,-3.05608 -38.7404,-18.35665 -44.28728,-39.26849 -1.20352,-4.5372 -1.3982,-6.3908 -1.3982,-13.1064 0,-6.71124 0.198,-8.58264 1.3982,-13.10637 5.08504,-19.16868 19.68772,-33.44916 39.18304,-38.307 3.0244,-0.75364 6.81272,-1.14828 10.71384,-1.19764 z m 0.67384,19.53304 c -3.2726,0.0556 -6.51976,0.47136 -8.96192,1.23136 -9.06028,2.81964 -16.35244,8.9128 -20.11372,16.80044 -2.74296,5.75217 -3.33544,8.70861 -3.33544,16.73297 0,6.86984 -0.1204,7.29496 -2.98168,11.04848 -3.84084,5.0384 -3.68116,10.87696 0.3704,13.5618 3.39084,2.24692 6.33624,2.03824 11.01708,-0.7928 2.08612,-1.26172 4.19328,-2.294 4.68308,-2.294 0.48984,0 2.37808,1.3476 4.21144,2.9856 1.83332,1.63804 3.9158,3.11336 4.61572,3.28924 2.02692,0.5094 4.55092,-0.2248 7.71528,-2.24344 4.12368,-2.63084 5.26328,-2.48644 8.92824,1.09644 2.42536,2.37104 3.39572,2.96876 4.801,2.96876 1.43892,0 2.25804,-0.541 4.51464,-2.96876 3.40764,-3.66612 4.64568,-3.78916 10.29272,-0.9952 3.84208,1.90088 4.083,1.95012 6.45188,1.31568 5.13304,-1.37468 7.70908,-4.91556 6.56984,-9.05808 -0.3116,-1.1326 -1.66204,-3.62344 -2.99856,-5.53268 l -2.42576,-3.47476 0.0504,-8.40024 c 0.0524,-7.67368 -0.0588,-8.78208 -1.34768,-12.80277 -3.3234,-10.36848 -12.15208,-18.64892 -22.9606,-21.54032 -2.52608,-0.67572 -5.82408,-0.98324 -9.09668,-0.92772 z"
           style="fill:#53fe00;fill-opacity:1" />
      </g>
    </g>
  </g>
</svg>
